<svg width="22" height="22" viewBox="0 0 21 20" fill="none" xmlns="http://www.w3.org/2000/svg">
<path d="M14.4566 14.1238C14.7702 13.8386 14.7819 13.3492 14.4821 13.0494L11.2327 9.8V4.75C11.2327 4.33579 10.8969 4 10.4827 4C10.0685 4 9.73273 4.33579 9.73273 4.75V9.98579C9.73273 10.251 9.83808 10.5054 10.0256 10.6929L13.4321 14.0994C13.7124 14.3796 14.1633 14.3904 14.4566 14.1238Z" fill="#141C24"/>
<path d="M10.5327 20C9.16605 20 7.87438 19.7375 6.65771 19.2125C5.44105 18.6875 4.37855 17.9708 3.47021 17.0625C2.56188 16.1542 1.84521 15.0917 1.32021 13.875C0.795215 12.6583 0.532715 11.3583 0.532715 9.975C0.532715 8.60833 0.795215 7.31667 1.32021 6.1C1.84521 4.88333 2.56188 3.825 3.47021 2.925C4.37855 2.025 5.44105 1.3125 6.65771 0.7875C7.87438 0.2625 9.17438 0 10.5577 0C11.9244 0 13.216 0.2625 14.4327 0.7875C15.6494 1.3125 16.7077 2.025 17.6077 2.925C18.5077 3.825 19.2202 4.88333 19.7452 6.1C20.2702 7.31667 20.5327 8.61667 20.5327 10C20.5327 11.3667 20.2702 12.6583 19.7452 13.875C19.2202 15.0917 18.5077 16.1542 17.6077 17.0625C16.7077 17.9708 15.6494 18.6875 14.4327 19.2125C13.216 19.7375 11.916 20 10.5327 20ZM10.5327 18.5C12.8994 18.5 14.9077 17.6708 16.5577 16.0125C18.2077 14.3542 19.0327 12.35 19.0327 10C19.0327 7.63333 18.2077 5.625 16.5577 3.975C14.9077 2.325 12.8994 1.5 10.5327 1.5C8.18271 1.5 6.17855 2.325 4.52022 3.975C2.86188 5.625 2.03271 7.63333 2.03271 10C2.03271 12.35 2.86188 14.3542 4.52022 16.0125C6.17855 17.6708 8.18271 18.5 10.5327 18.5Z" fill="#141C24"/>
</svg>
