<svg width="22" height="22" viewBox="0 0 17 16" fill="none" xmlns="http://www.w3.org/2000/svg">
<path fill-rule="evenodd" clip-rule="evenodd" d="M12.5327 4C12.5327 6.20914 10.7419 8 8.53271 8C6.32358 8 4.53271 6.20914 4.53271 4C4.53271 1.79086 6.32358 0 8.53271 0C10.7419 0 12.5327 1.79086 12.5327 4ZM11.0327 4C11.0327 5.38071 9.91343 6.5 8.53271 6.5C7.152 6.5 6.03271 5.38071 6.03271 4C6.03271 2.61929 7.152 1.5 8.53271 1.5C9.91343 1.5 11.0327 2.61929 11.0327 4Z" fill="#141C24"/>
<path fill-rule="evenodd" clip-rule="evenodd" d="M0.532715 13.772V16H16.5327V13.772C16.5327 12.1046 15.4984 10.6121 13.9372 10.0267L13.7996 9.97507C10.4038 8.70165 6.66164 8.70165 3.26586 9.97507L3.12822 10.0267C1.56701 10.6121 0.532715 12.1046 0.532715 13.772ZM3.79255 11.3796C6.84875 10.2335 10.2167 10.2335 13.2729 11.3796L13.4105 11.4312C14.3863 11.7971 15.0327 12.7299 15.0327 13.772V14.5H2.03271V13.772C2.03271 12.7299 2.67915 11.7971 3.65491 11.4312L3.79255 11.3796Z" fill="#141C24"/>
</svg>
